<svg width="164" height="164" viewBox="0 0 164 164" fill="none" xmlns="http://www.w3.org/2000/svg">
<rect width="164" height="164" rx="16" fill="black"/>
<g filter="url(#filter0_d_2_5)">
<path d="M101.006 42.7031C107.888 43.0964 113.541 45.7507 117.964 50.666C122.388 55.4831 125.583 60.9883 127.549 67.1816C129.515 73.375 130.499 79.7158 130.499 86.2041C130.499 92.6924 129.515 99.0332 127.549 105.227C125.681 111.42 122.486 116.974 117.964 121.89C113.541 126.707 107.888 129.312 101.006 129.705H46.7407C44.0864 129.607 41.8254 128.673 39.9575 126.903C38.188 125.035 37.2541 122.774 37.1558 120.12V83.5498C37.2541 80.7972 38.2863 78.5361 40.2524 76.7666C42.2186 74.8988 44.578 73.9648 47.3306 73.9648C49.9849 74.0632 52.2459 75.0462 54.1138 76.9141C55.9816 78.6836 56.9647 80.8955 57.063 83.5498V105.964C57.063 108.618 58.4393 109.945 61.1919 109.945H95.9927C99.7284 109.749 102.825 108.323 105.283 105.669C107.74 103.015 109.51 100.016 110.591 96.6738C111.771 93.2331 112.361 89.7432 112.361 86.2041C112.361 82.665 111.771 79.2243 110.591 75.8818C109.51 72.4411 107.74 69.3936 105.283 66.7393C102.825 64.085 99.7284 62.6595 95.9927 62.4629H46.7407C40.8423 61.9714 37.6473 58.7764 37.1558 52.8779C37.1558 50.1253 38.0405 47.766 39.8101 45.7998C41.6779 43.8337 43.9881 42.8014 46.7407 42.7031H101.006Z" fill="white"/>
<path d="M101.006 42.7031L101.063 41.7048L101.035 41.7031H101.006V42.7031ZM117.964 50.666L117.221 51.335L117.228 51.3424L117.964 50.666ZM127.549 105.227L126.596 104.924L126.594 104.931L126.592 104.938L127.549 105.227ZM117.964 121.89L117.228 121.213L117.228 121.213L117.964 121.89ZM101.006 129.705V130.705H101.035L101.063 130.703L101.006 129.705ZM46.7407 129.705L46.7037 130.704L46.7222 130.705H46.7407V129.705ZM39.9575 126.903L39.2316 127.591L39.2502 127.611L39.2698 127.629L39.9575 126.903ZM37.1558 120.12H36.1558V120.139L36.1564 120.157L37.1558 120.12ZM37.1558 83.5498L36.1564 83.5141L36.1558 83.532V83.5498H37.1558ZM40.2524 76.7666L40.9214 77.5099L40.9314 77.5009L40.9412 77.4916L40.2524 76.7666ZM47.3306 73.9648L47.3676 72.9655L47.3491 72.9648H47.3306V73.9648ZM54.1138 76.9141L53.4067 77.6212L53.4162 77.6307L53.426 77.64L54.1138 76.9141ZM57.063 83.5498H58.063V83.5313L58.0623 83.5128L57.063 83.5498ZM95.9927 109.945V110.945H96.019L96.0452 110.944L95.9927 109.945ZM105.283 105.669L106.016 106.348L105.283 105.669ZM110.591 96.6738L109.645 96.3495L109.643 96.3577L109.64 96.366L110.591 96.6738ZM110.591 75.8818L109.637 76.1817L109.643 76.1983L109.648 76.2147L110.591 75.8818ZM105.283 66.7393L106.016 66.0598L105.283 66.7393ZM95.9927 62.4629L96.0452 61.4643L96.019 61.4629H95.9927V62.4629ZM46.7407 62.4629L46.6577 63.4594L46.6991 63.4629H46.7407V62.4629ZM37.1558 52.8779H36.1558V52.9195L36.1592 52.961L37.1558 52.8779ZM39.8101 45.7998L39.0851 45.1111L39.0758 45.1208L39.0668 45.1308L39.8101 45.7998ZM46.7407 42.7031V41.7031H46.7229L46.705 41.7038L46.7407 42.7031ZM100.949 43.7015C107.58 44.0804 112.982 46.6246 117.221 51.335L118.708 49.9971C114.099 44.8767 108.196 42.1123 101.063 41.7048L100.949 43.7015ZM117.228 51.3424C121.554 56.0529 124.674 61.4307 126.596 67.4842L128.502 66.8791C126.492 60.5459 123.223 54.9133 118.701 49.9896L117.228 51.3424ZM126.596 67.4842C128.531 73.5799 129.499 79.8186 129.499 86.2041H131.499C131.499 79.613 130.5 73.1701 128.502 66.8791L126.596 67.4842ZM129.499 86.2041C129.499 92.5896 128.531 98.8283 126.596 104.924L128.502 105.529C130.5 99.2381 131.499 92.7952 131.499 86.2041H129.499ZM126.592 104.938C124.769 110.982 121.652 116.405 117.228 121.213L118.7 122.567C123.321 117.544 126.594 111.858 128.507 105.515L126.592 104.938ZM117.228 121.213C112.99 125.828 107.587 128.327 100.949 128.707L101.063 130.703C108.189 130.296 114.091 127.586 118.701 122.566L117.228 121.213ZM101.006 128.705H46.7407V130.705H101.006V128.705ZM46.7777 128.706C44.3578 128.616 42.3305 127.774 40.6453 126.177L39.2698 127.629C41.3202 129.572 43.8151 130.597 46.7037 130.704L46.7777 128.706ZM40.6835 126.216C39.087 124.53 38.2447 122.503 38.1551 120.083L36.1564 120.157C36.2634 123.046 37.289 125.541 39.2316 127.591L40.6835 126.216ZM38.1558 120.12V83.5498H36.1558V120.12H38.1558ZM38.1551 83.5855C38.2442 81.0913 39.1659 79.0899 40.9214 77.5099L39.5835 76.0233C37.4067 77.9824 36.2639 80.5031 36.1564 83.5141L38.1551 83.5855ZM40.9412 77.4916C42.7184 75.8032 44.83 74.9648 47.3306 74.9648V72.9648C44.3259 72.9648 41.7188 73.9943 39.5637 76.0416L40.9412 77.4916ZM47.2936 74.9642C49.6972 75.0532 51.7184 75.9329 53.4067 77.6212L54.8209 76.207C52.7735 74.1595 50.2726 73.0731 47.3676 72.9655L47.2936 74.9642ZM53.426 77.64C55.0971 79.2231 55.9747 81.1847 56.0637 83.5868L58.0623 83.5128C57.9547 80.6063 56.8661 78.144 54.8015 76.1881L53.426 77.64ZM56.063 83.5498V105.964H58.063V83.5498H56.063ZM56.063 105.964C56.063 107.455 56.4514 108.754 57.4011 109.67C58.3439 110.579 59.6704 110.945 61.1919 110.945V108.945C59.9608 108.945 59.2228 108.648 58.7894 108.23C58.3627 107.819 58.063 107.127 58.063 105.964H56.063ZM61.1919 110.945H95.9927V108.945H61.1919V110.945ZM96.0452 110.944C100.031 110.734 103.375 109.201 106.016 106.348L104.549 104.99C102.275 107.446 99.4257 108.763 95.9401 108.947L96.0452 110.944ZM106.016 106.348C108.57 103.591 110.415 100.466 111.543 96.9816L109.64 96.366C108.605 99.5661 106.911 102.439 104.549 104.99L106.016 106.348ZM111.537 96.9982C112.752 93.456 113.361 89.8566 113.361 86.2041H111.361C111.361 89.6297 110.79 93.0102 109.645 96.3495L111.537 96.9982ZM113.361 86.2041C113.361 82.5515 112.752 78.9982 111.534 75.549L109.648 76.2147C110.79 79.4504 111.361 82.7786 111.361 86.2041H113.361ZM111.545 75.582C110.419 71.9995 108.574 68.8225 106.016 66.0598L104.549 67.4187C106.906 69.9646 108.6 72.8826 109.637 76.1817L111.545 75.582ZM106.016 66.0598C103.375 63.2074 100.031 61.6741 96.0452 61.4643L95.9401 63.4615C99.4257 63.645 102.275 64.9625 104.549 67.4187L106.016 66.0598ZM95.9927 61.4629H46.7407V63.4629H95.9927V61.4629ZM46.8238 61.4663C44.0361 61.234 42.012 60.3752 40.6278 58.9909C39.2435 57.6066 38.3846 55.5825 38.1523 52.7949L36.1592 52.961C36.4184 56.0718 37.4028 58.5944 39.2135 60.4051C41.0243 62.2158 43.5469 63.2002 46.6577 63.4594L46.8238 61.4663ZM38.1558 52.8779C38.1558 50.3614 38.9563 48.2433 40.5534 46.4688L39.0668 45.1308C37.1247 47.2886 36.1558 49.8893 36.1558 52.8779H38.1558ZM40.5351 46.4886C42.2195 44.7155 44.2808 43.7916 46.7764 43.7025L46.705 41.7038C43.6954 41.8112 41.1363 42.9519 39.0851 45.1111L40.5351 46.4886ZM46.7407 43.7031H101.006V41.7031H46.7407V43.7031Z" fill="#7E22CE"/>
</g>
<defs>
<filter id="filter0_d_2_5" x="21.1558" y="34.7031" width="125.343" height="119.002" filterUnits="userSpaceOnUse" color-interpolation-filters="sRGB">
<feFlood flood-opacity="0" result="BackgroundImageFix"/>
<feColorMatrix in="SourceAlpha" type="matrix" values="0 0 0 0 0 0 0 0 0 0 0 0 0 0 0 0 0 0 127 0" result="hardAlpha"/>
<feOffset dy="8"/>
<feGaussianBlur stdDeviation="8"/>
<feComposite in2="hardAlpha" operator="out"/>
<feColorMatrix type="matrix" values="0 0 0 0 0.913725 0 0 0 0 0.835294 0 0 0 0 1 0 0 0 0.57 0"/>
<feBlend mode="normal" in2="BackgroundImageFix" result="effect1_dropShadow_2_5"/>
<feBlend mode="normal" in="SourceGraphic" in2="effect1_dropShadow_2_5" result="shape"/>
</filter>
</defs>
</svg>
